<svg width="25" height="25" viewBox="0 0 25 25" fill="none" xmlns="http://www.w3.org/2000/svg">
<circle cx="12.5965" cy="12.9298" r="12.0702" fill="white"/>
<path d="M15.7187 8.19384C16.4128 8.19592 17.0779 8.47257 17.5687 8.96339C18.0596 9.45421 18.3362 10.1193 18.3383 10.8134V16.052C18.3362 16.7461 18.0596 17.4112 17.5687 17.9021C17.0779 18.3929 16.4128 18.6695 15.7187 18.6716H10.4801C9.78599 18.6695 9.1209 18.3929 8.63008 17.9021C8.13926 17.4112 7.8626 16.7461 7.86053 16.052V10.8134C7.8626 10.1193 8.13926 9.45421 8.63008 8.96339C9.1209 8.47257 9.78599 8.19592 10.4801 8.19384H15.7187ZM15.7187 7.14618H10.4801C8.46308 7.14618 6.81287 8.7964 6.81287 10.8134V16.052C6.81287 18.0691 8.46308 19.7193 10.4801 19.7193H15.7187C17.7357 19.7193 19.386 18.0691 19.386 16.052V10.8134C19.386 8.7964 17.7357 7.14618 15.7187 7.14618Z" fill="#1B8800"/>
<path d="M16.5045 10.8134C16.3491 10.8134 16.1972 10.7673 16.068 10.681C15.9387 10.5946 15.838 10.4719 15.7785 10.3283C15.7191 10.1847 15.7035 10.0267 15.7338 9.8743C15.7641 9.72187 15.839 9.58185 15.9489 9.47195C16.0588 9.36205 16.1988 9.28721 16.3512 9.25689C16.5037 9.22657 16.6617 9.24213 16.8053 9.30161C16.9488 9.36108 17.0716 9.4618 17.1579 9.59103C17.2443 9.72026 17.2904 9.87219 17.2904 10.0276C17.2906 10.1309 17.2704 10.2331 17.231 10.3286C17.1916 10.424 17.1337 10.5107 17.0607 10.5838C16.9877 10.6568 16.901 10.7146 16.8055 10.7541C16.7101 10.7935 16.6078 10.8136 16.5045 10.8134ZM13.0994 11.3371C13.5139 11.3371 13.9191 11.46 14.2637 11.6903C14.6083 11.9206 14.8769 12.2478 15.0355 12.6308C15.1941 13.0137 15.2356 13.4351 15.1548 13.8416C15.0739 14.2481 14.8743 14.6215 14.5812 14.9145C14.2882 15.2076 13.9148 15.4072 13.5082 15.4881C13.1017 15.5689 12.6804 15.5274 12.2975 15.3688C11.9145 15.2102 11.5872 14.9416 11.357 14.597C11.1267 14.2524 11.0038 13.8472 11.0038 13.4327C11.0044 12.8771 11.2254 12.3444 11.6183 11.9516C12.0111 11.5587 12.5438 11.3377 13.0994 11.3371ZM13.0994 10.2895C12.4777 10.2895 11.87 10.4738 11.3531 10.8192C10.8362 11.1646 10.4333 11.6555 10.1954 12.2298C9.9575 12.8042 9.89525 13.4362 10.0165 14.0459C10.1378 14.6557 10.4372 15.2158 10.8768 15.6554C11.3164 16.095 11.8765 16.3943 12.4862 16.5156C13.0959 16.6369 13.7279 16.5746 14.3023 16.3367C14.8767 16.0988 15.3676 15.6959 15.713 15.179C16.0583 14.6621 16.2427 14.0544 16.2427 13.4327C16.2427 12.5991 15.9115 11.7996 15.322 11.2101C14.7326 10.6206 13.9331 10.2895 13.0994 10.2895Z" fill="#1B8800"/>
</svg>
