<svg width="183" height="78" viewBox="0 0 183 78" fill="none" xmlns="http://www.w3.org/2000/svg">
<path fill-rule="evenodd" clip-rule="evenodd" d="M124.656 74.3509L103.682 78L146.18 28.2807L128.869 11.6772L140.41 11.9509L151.584 21.986L169.078 1.45965L183 0L159.919 29.4667L180.985 48.3509L166.056 47.0737L154.607 36.2175L124.656 74.3509Z" fill="white"/>
<path fill-rule="evenodd" clip-rule="evenodd" d="M153.782 1.64211C157.263 3.01053 159.369 5.92982 158.453 8.21053C157.538 10.4912 154.057 11.3123 150.577 10.0351C147.096 8.66667 144.989 5.74737 145.905 3.46667C146.821 1.18596 150.302 0.364912 153.782 1.64211Z" fill="white"/>
<path fill-rule="evenodd" clip-rule="evenodd" d="M127.404 11.586H89.943L87.012 20.4351L85.0886 26.1825L82.1577 35.0316L80.2342 40.7789L77.3033 49.6281H114.764L117.695 40.7789H89.1186L91.042 35.0316H117.237L120.168 26.1825H93.973L95.8964 20.4351H124.473L127.404 11.586ZM21.7072 11.586H50.2838L47.3529 20.4351H18.7763L16.6697 26.7298H45.2462L42.3153 35.5789H13.7387L9.06757 49.5368H0.183183L4.85435 35.5789L7.78529 26.7298L9.89189 20.4351C11.5405 15.6 16.8529 11.586 21.7072 11.586ZM60.2673 11.586H51.3829L48.452 20.4351L46.5285 26.1825L43.5976 35.0316L41.6742 40.7789L38.7432 49.6281H76.2042L79.1351 40.7789H50.5586L52.482 35.0316L55.4129 26.1825L57.3363 20.4351L60.2673 11.586Z" fill="white"/>
<path d="M1.55706 59.9368C1.55706 59.6632 1.64865 59.2982 2.10661 59.2982L4.03003 59.207V60.4842C4.03003 60.4842 2.93093 61.0316 2.1982 61.0316C1.83183 61.0316 1.55706 60.9403 1.55706 60.393V59.9368ZM0.183183 60.4842C0.183183 61.3053 0.824324 62.0351 1.83183 62.1263C2.83934 62.1263 3.93844 61.4877 3.93844 61.3965L4.21321 62.1263H5.22072V57.7474C5.22072 56.2877 4.3964 55.8316 3.11411 55.8316C1.92342 55.8316 1.00751 55.9228 0.274775 56.1965V57.0175C1.00751 57.0175 2.38138 56.9263 3.02252 56.9263C3.57207 56.9263 3.84685 57.1088 3.84685 57.7474V58.2947H1.74024C0.549549 58.2947 0 59.0246 0 59.9368V60.5754L0.183183 60.4842ZM15.2958 59.0246C15.2958 61.5789 16.2117 62.1263 17.3108 62.1263C18.3183 62.1263 19.2342 62.1263 20.1501 61.7614V60.8491C20.1501 60.8491 18.7763 60.9403 17.7688 60.9403C16.9444 60.9403 16.6697 60.6667 16.6697 59.0246C16.6697 57.1088 17.036 57.0175 17.7688 57.0175C18.7763 57.0175 20.0586 57.1088 20.0586 57.1088V56.2877C19.1426 56.014 17.8604 55.9228 17.3108 55.9228C16.1201 55.9228 15.2958 56.4702 15.2958 59.0246ZM31.3243 60.1193C31.3243 59.8456 31.4159 59.4807 31.8739 59.4807L33.7973 59.3895V60.6667C33.7973 60.6667 32.6982 61.214 31.9655 61.214C31.5991 61.214 31.3243 61.1228 31.3243 60.5754V60.1193ZM29.9504 60.6667C29.9504 61.4877 30.5916 62.2175 31.5991 62.3088C32.6066 62.3088 33.7057 61.6702 33.7057 61.5789L33.9805 62.3088H34.988V57.9298C34.988 56.4702 34.1637 56.014 32.8814 56.014C31.6907 56.014 30.7748 56.1053 30.042 56.3789V57.2C30.7748 57.2 32.1486 57.1088 32.7898 57.1088C33.3393 57.1088 33.6141 57.2912 33.6141 57.9298V58.4772H31.5075C30.3168 58.4772 29.7673 59.207 29.7673 60.1193V60.7579L29.9504 60.6667ZM46.4369 59.207C46.4369 57.5649 46.8033 57.2 47.3528 57.2C47.994 57.2 48.5435 57.2912 49.0931 57.4737V60.7579C48.6351 61.0316 48.0856 61.214 47.3528 61.214C46.7117 61.214 46.4369 60.6667 46.4369 59.2982V59.207ZM45.0631 59.207C45.0631 60.9403 45.521 62.3088 47.0781 62.3088C47.8108 62.3088 48.7267 61.8526 49.0931 61.5789L49.3679 62.2175H50.467V53.186H49.0931V56.4702C48.452 56.1965 47.6276 56.014 47.0781 56.014C45.3378 56.014 45.0631 57.3824 45.0631 59.207ZM61.8243 58.8421C61.8243 57.2912 62.1907 57.2912 63.1982 57.2912C64.1141 57.2912 64.2973 57.3825 64.2973 58.386C64.2973 58.7509 64.1141 58.8421 63.7477 58.8421H61.8243ZM60.4504 59.2982C60.4504 61.5789 60.9084 62.4912 62.4655 62.4912C63.473 62.4912 64.6637 62.4912 65.488 62.2175V61.3053C64.6637 61.3965 64.0225 61.3965 63.015 61.3965C62.0991 61.3965 61.7327 61.214 61.7327 60.0281H63.9309C65.03 60.0281 65.5796 59.5719 65.5796 58.5684C65.5796 56.5614 64.7553 56.3789 63.1066 56.3789C61.1832 56.3789 60.4504 56.7439 60.4504 59.4807V59.2982ZM75.6547 62.4912H77.0285V58.021C77.6697 57.6561 78.036 57.4737 78.7688 57.4737C79.2267 57.4737 79.5931 57.8386 79.5931 58.386V62.4912H80.967V58.021C81.5165 57.6561 82.0661 57.4737 82.7072 57.4737C83.1652 57.4737 83.5315 57.8386 83.5315 58.386V62.4912H84.9054V58.386C84.9054 57.2 84.2643 56.2877 83.0736 56.2877C82.0661 56.2877 81.3333 56.6526 80.7838 57.1088C80.509 56.5614 79.9595 56.2877 79.1351 56.2877C78.2192 56.2877 77.7613 56.6526 77.1201 57.0175L76.8453 56.2877H75.8378V62.4L75.6547 62.4912ZM94.8889 62.5825H96.2628V56.4702H94.8889V62.5825ZM94.7973 55.5579C94.7973 55.7403 94.8889 55.8316 95.0721 55.8316H96.0796C96.2628 55.8316 96.3544 55.7403 96.3544 55.5579V54.6456C96.3544 54.4632 96.2628 54.3719 96.0796 54.3719H95.0721C94.8889 54.3719 94.7973 54.4632 94.7973 54.6456V55.5579ZM107.529 60.6667C107.529 60.393 107.62 60.0281 108.078 60.0281L110.001 59.9368V61.214C110.001 61.214 108.902 61.7614 108.17 61.7614C107.803 61.7614 107.529 61.6702 107.529 61.1228V60.6667ZM106.155 61.214C106.155 62.0351 106.796 62.7649 107.803 62.8561C108.811 62.8561 109.91 62.2175 109.91 62.1263L110.185 62.8561H111.192V58.4772C111.192 57.0175 110.368 56.5614 109.086 56.5614C107.895 56.5614 106.979 56.6526 106.246 56.9263V57.7474C106.979 57.7474 108.353 57.6561 108.994 57.6561C109.544 57.6561 109.818 57.8386 109.818 58.4772V59.0246H107.712C106.521 59.0246 105.971 59.7544 105.971 60.6667V61.3053L106.155 61.214Z" fill="white"/>
</svg>
